<?xml version="1.0" encoding="UTF-8" standalone="no"?>
<!DOCTYPE svg PUBLIC "-//W3C//DTD SVG 1.0//EN" "http://www.w3.org/TR/2001/PR-SVG-20010719/DTD/svg10.dtd">
<svg width="30cm" height="22cm" viewBox="376 -834 600 425" xmlns="http://www.w3.org/2000/svg" xmlns:xlink="http://www.w3.org/1999/xlink">
  <g>
    <path style="fill: #ffffff" d="M 428.861 -820.96 C 416.053,-821.11 391.212,-817.959 394.705,-811.206 C 398.198,-804.453 414.888,-802.952 421.875,-804.903 C 428.861,-806.854 411.007,-795.449 445.163,-792.447 C 479.319,-789.446 496.785,-794.248 491.74,-797.7 C 486.694,-801.151 521.626,-789.596 537.928,-796.199 C 554.23,-802.802 521.238,-809.105 528.225,-808.204 C 535.211,-807.304 556.559,-808.504 549.572,-819.76 C 542.586,-831.015 479.707,-822.311 486.694,-823.961 C 493.68,-825.612 476.214,-833.866 454.479,-832.215 C 432.743,-830.564 431.201,-827.569 428.872,-820.966 L 428.861,-820.96z"/>
    <path style="fill: none; fill-opacity:0; stroke-width: 2; stroke: #000000" d="M 428.861 -820.96 C 416.053,-821.11 391.212,-817.959 394.705,-811.206 C 398.198,-804.453 414.888,-802.952 421.875,-804.903 C 428.861,-806.854 411.007,-795.449 445.163,-792.447 C 479.319,-789.446 496.785,-794.248 491.74,-797.7 C 486.694,-801.151 521.626,-789.596 537.928,-796.199 C 554.23,-802.802 521.238,-809.105 528.225,-808.204 C 535.211,-807.304 556.559,-808.504 549.572,-819.76 C 542.586,-831.015 479.707,-822.311 486.694,-823.961 C 493.68,-825.612 476.214,-833.866 454.479,-832.215 C 432.743,-830.564 431.201,-827.569 428.872,-820.966 L 428.861,-820.96"/>
    <text font-size="12.8" style="fill: #000000;text-anchor:middle;font-family:sans-serif;font-style:normal;font-weight:normal" x="478.318" y="-806.873">
      <tspan x="478.318" y="-806.873"></tspan>
    </text>
  </g>
  <g>
    <rect style="fill: #ffffff" x="423.208" y="-758.13" width="101.8" height="38"/>
    <rect style="fill: none; fill-opacity:0; stroke-width: 2; stroke: #000000" x="423.208" y="-758.13" width="101.8" height="38"/>
    <text font-size="12.8" style="fill: #000000;text-anchor:middle;font-family:sans-serif;font-style:normal;font-weight:normal" x="474.108" y="-735.23">
      <tspan x="474.108" y="-735.23">Fetch Article</tspan>
    </text>
  </g>
  <g>
    <rect style="fill: #ffffff" x="423.53" y="-692.36" width="101.8" height="38"/>
    <rect style="fill: none; fill-opacity:0; stroke-width: 2; stroke: #000000" x="423.53" y="-692.36" width="101.8" height="38"/>
    <text font-size="12.8" style="fill: #000000;text-anchor:middle;font-family:sans-serif;font-style:normal;font-weight:normal" x="474.43" y="-669.46">
      <tspan x="474.43" y="-669.46">Task 1</tspan>
    </text>
  </g>
  <g>
    <line style="fill: none; fill-opacity:0; stroke-width: 2; stroke: #000000" x1="474.038" y1="-790.789" x2="474.068" y2="-768.813"/>
    <polygon style="fill: #000000" points="474.078,-761.313 469.064,-771.306 474.068,-768.813 479.064,-771.32 "/>
    <polygon style="fill: none; fill-opacity:0; stroke-width: 2; stroke: #000000" points="474.078,-761.313 469.064,-771.306 474.068,-768.813 479.064,-771.32 "/>
  </g>
  <g>
    <line style="fill: none; fill-opacity:0; stroke-width: 2; stroke: #000000" x1="474.206" y1="-719.139" x2="474.284" y2="-703.087"/>
    <polygon style="fill: #000000" points="474.321,-695.587 469.272,-705.563 474.284,-703.087 479.272,-705.612 "/>
    <polygon style="fill: none; fill-opacity:0; stroke-width: 2; stroke: #000000" points="474.321,-695.587 469.272,-705.563 474.284,-703.087 479.272,-705.612 "/>
  </g>
  <g>
    <rect style="fill: #ffffff" x="413.778" y="-628.816" width="121.306" height="38"/>
    <rect style="fill: none; fill-opacity:0; stroke-width: 2; stroke: #000000" x="413.778" y="-628.816" width="121.306" height="38"/>
    <text font-size="12.8" style="fill: #000000;text-anchor:middle;font-family:sans-serif;font-style:normal;font-weight:normal" x="474.431" y="-605.916">
      <tspan x="474.431" y="-605.916">Store Keywords</tspan>
    </text>
  </g>
  <g>
    <rect style="fill: #ffffff" x="413.156" y="-564.622" width="121.306" height="38"/>
    <rect style="fill: none; fill-opacity:0; stroke-width: 2; stroke: #000000" x="413.156" y="-564.622" width="121.306" height="38"/>
    <text font-size="12.8" style="fill: #000000;text-anchor:middle;font-family:sans-serif;font-style:normal;font-weight:normal" x="473.809" y="-541.722">
      <tspan x="473.809" y="-541.722">Task 2</tspan>
    </text>
  </g>
  <g>
    <rect style="fill: #ffffff" x="391.074" y="-504.968" width="162.875" height="38"/>
    <rect style="fill: none; fill-opacity:0; stroke-width: 2; stroke: #000000" x="391.074" y="-504.968" width="162.875" height="38"/>
    <text font-size="12.8" style="fill: #000000;text-anchor:middle;font-family:sans-serif;font-style:normal;font-weight:normal" x="472.511" y="-482.068">
      <tspan x="472.511" y="-482.068">Store Rated Keywords</tspan>
    </text>
  </g>
  <g>
    <rect style="fill: #ffffff" x="377.886" y="-447.906" width="190.619" height="38"/>
    <rect style="fill: none; fill-opacity:0; stroke-width: 2; stroke: #000000" x="377.886" y="-447.906" width="190.619" height="38"/>
    <text font-size="12.8" style="fill: #000000;text-anchor:middle;font-family:sans-serif;font-style:normal;font-weight:normal" x="473.195" y="-425.006">
      <tspan x="473.195" y="-425.006">Create Sentiment analysis</tspan>
    </text>
  </g>
  <g>
    <path style="fill: #ffffff" d="M 699.639 -631.528 C 685.413,-631.825 657.824,-625.581 661.704,-612.201 C 665.583,-598.822 684.12,-595.849 691.88,-599.714 C 699.639,-603.579 679.809,-580.982 717.745,-575.036 C 755.68,-569.089 775.079,-578.604 769.474,-585.442 C 763.87,-592.281 802.668,-569.386 820.773,-582.469 C 838.879,-595.551 802.237,-608.039 809.996,-606.255 C 817.756,-604.471 841.466,-606.85 833.706,-629.149 C 825.946,-651.449 756.111,-634.204 763.87,-637.474 C 771.63,-640.745 752.231,-657.098 728.091,-653.827 C 703.95,-650.557 702.238,-644.622 699.651,-631.539 L 699.639,-631.528z"/>
    <path style="fill: none; fill-opacity:0; stroke-width: 2; stroke: #000000" d="M 699.639 -631.528 C 685.413,-631.825 657.824,-625.581 661.704,-612.201 C 665.583,-598.822 684.12,-595.849 691.88,-599.714 C 699.639,-603.579 679.809,-580.982 717.745,-575.036 C 755.68,-569.089 775.079,-578.604 769.474,-585.442 C 763.87,-592.281 802.668,-569.386 820.773,-582.469 C 838.879,-595.551 802.237,-608.039 809.996,-606.255 C 817.756,-604.471 841.466,-606.85 833.706,-629.149 C 825.946,-651.449 756.111,-634.204 763.87,-637.474 C 771.63,-640.745 752.231,-657.098 728.091,-653.827 C 703.95,-650.557 702.238,-644.622 699.651,-631.539 L 699.639,-631.528"/>
    <text font-size="12.8" style="fill: #000000;text-anchor:middle;font-family:sans-serif;font-style:normal;font-weight:normal" x="754.568" y="-615.542">
      <tspan x="754.568" y="-615.542">Crowdsourcing</tspan>
      <tspan x="754.568" y="-599.542">Platform</tspan>
    </text>
  </g>
  <g>
    <path style="fill: #c9c9b8" d="M 906.849 -632.073 L 910.105,-632.073 L 906.658,-614.648 L 911.348,-614.648 L 914.188,-627.381 C 914.188,-627.381 915.655,-617.423 916.326,-614.744 C 917.073,-614.744 919.758,-614.744 921.304,-614.744 C 921.016,-615.893 918.432,-630.636 918.335,-632.169 C 918.719,-632.169 920.826,-631.976 921.496,-632.073 C 921.496,-632.838 920.922,-636.764 920.922,-637.721 C 920.922,-638.679 920.06,-642.987 919.773,-643.945 C 919.523,-644.774 917.859,-646.05 916.996,-646.337 C 916.133,-646.625 914.41,-646.529 913.454,-646.529 C 912.496,-646.529 911.433,-646.287 910.485,-646.051 C 909.72,-645.859 908.858,-644.617 908.571,-643.849 C 908.283,-643.084 907.901,-640.689 907.614,-639.541 C 907.325,-638.392 907.23,-634.083 907.038,-633.413 C 906.847,-632.744 906.847,-632.073 906.847,-632.073 L 906.849,-632.073z"/>
    <path style="fill: none; fill-opacity:0; stroke-width: 0.02; stroke: #000000" d="M 906.849 -632.073 L 910.105,-632.073 L 906.658,-614.648 L 911.348,-614.648 L 914.188,-627.381 C 914.188,-627.381 915.655,-617.423 916.326,-614.744 C 917.073,-614.744 919.758,-614.744 921.304,-614.744 C 921.016,-615.893 918.432,-630.636 918.335,-632.169 C 918.719,-632.169 920.826,-631.976 921.496,-632.073 C 921.496,-632.838 920.922,-636.764 920.922,-637.721 C 920.922,-638.679 920.06,-642.987 919.773,-643.945 C 919.523,-644.774 917.859,-646.05 916.996,-646.337 C 916.133,-646.625 914.41,-646.529 913.454,-646.529 C 912.496,-646.529 911.433,-646.287 910.485,-646.051 C 909.72,-645.859 908.858,-644.617 908.571,-643.849 C 908.283,-643.084 907.901,-640.689 907.614,-639.541 C 907.325,-638.392 907.23,-634.083 907.038,-633.413 C 906.847,-632.744 906.847,-632.073 906.847,-632.073 L 906.849,-632.073"/>
    <path style="fill: #ffffff" d="M 916.009 -646.498 C 915.656,-646.529 915.084,-646.498 914.541,-646.529 C 913.999,-646.56 913.199,-646.529 912.818,-646.498 C 912.434,-646.467 911.509,-646.243 911.413,-646.243 C 911.319,-646.243 911.254,-646.306 911.254,-646.306 L 913.552,-638.137 L 916.87,-646.306 C 916.851,-646.54 916.596,-646.392 916.44,-646.481 L 916.009,-646.498z"/>
    <path style="fill: none; fill-opacity:0; stroke-width: 0.02; stroke: #ffffff" d="M 916.009 -646.498 C 915.656,-646.529 915.084,-646.498 914.541,-646.529 C 913.999,-646.56 913.199,-646.529 912.818,-646.498 C 912.434,-646.467 911.509,-646.243 911.413,-646.243 C 911.319,-646.243 911.254,-646.306 911.254,-646.306 L 913.552,-638.137 L 916.87,-646.306 C 916.851,-646.54 916.596,-646.392 916.44,-646.481 L 916.009,-646.498"/>
    <path style="fill: none; fill-opacity:0; stroke-width: 0.758; stroke: #ffffff" d="M 916.009 -646.498 C 915.656,-646.529 915.084,-646.498 914.541,-646.529 C 913.999,-646.56 913.199,-646.529 912.818,-646.498 C 912.434,-646.467 911.509,-646.243 911.413,-646.243 C 911.319,-646.243 911.254,-646.306 911.254,-646.306 L 913.552,-638.137 L 916.87,-646.306 C 916.851,-646.54 916.596,-646.392 916.44,-646.481"/>
    <path style="fill: #c9c9b8" d="M 914.046 -646.726 C 916.233,-646.726 918.005,-648.499 918.005,-650.686 C 918.005,-652.874 916.233,-654.648 914.046,-654.648 C 911.859,-654.648 910.085,-652.875 910.085,-650.686 C 910.085,-648.499 911.858,-646.726 914.046,-646.726z"/>
    <path style="fill: none; fill-opacity:0; stroke-width: 0.02; stroke: #000000" d="M 914.046 -646.726 C 916.233,-646.726 918.005,-648.499 918.005,-650.686 C 918.005,-652.874 916.233,-654.648 914.046,-654.648 C 911.859,-654.648 910.085,-652.875 910.085,-650.686 C 910.085,-648.499 911.858,-646.726 914.046,-646.726"/>
    <path style="fill: #ffffff" d="M 913.991 -647.555 C 915.633,-647.555 916.961,-648.884 916.961,-650.525 C 916.961,-652.165 915.633,-653.495 913.991,-653.495 C 912.352,-653.495 911.021,-652.165 911.021,-650.525 C 911.021,-648.884 912.352,-647.555 913.991,-647.555z"/>
    <path style="fill: none; fill-opacity:0; stroke-width: 0.02; stroke: #ffffff" d="M 913.991 -647.555 C 915.633,-647.555 916.961,-648.884 916.961,-650.525 C 916.961,-652.165 915.633,-653.495 913.991,-653.495 C 912.352,-653.495 911.021,-652.165 911.021,-650.525 C 911.021,-648.884 912.352,-647.555 913.991,-647.555"/>
  </g>
  <g>
    <path style="fill: #c9c9b8" d="M 906.499 -574.091 L 909.755,-574.091 L 906.308,-556.666 L 910.998,-556.666 L 913.838,-569.399 C 913.838,-569.399 915.305,-559.441 915.976,-556.762 C 916.723,-556.762 919.408,-556.762 920.954,-556.762 C 920.666,-557.911 918.082,-572.654 917.985,-574.187 C 918.369,-574.187 920.476,-573.994 921.146,-574.091 C 921.146,-574.856 920.572,-578.782 920.572,-579.739 C 920.572,-580.697 919.71,-585.005 919.423,-585.963 C 919.173,-586.792 917.509,-588.068 916.646,-588.355 C 915.783,-588.643 914.06,-588.547 913.104,-588.547 C 912.146,-588.547 911.083,-588.305 910.135,-588.069 C 909.37,-587.877 908.508,-586.635 908.221,-585.867 C 907.933,-585.102 907.551,-582.707 907.264,-581.559 C 906.975,-580.41 906.88,-576.101 906.688,-575.431 C 906.497,-574.762 906.497,-574.091 906.497,-574.091 L 906.499,-574.091z"/>
    <path style="fill: none; fill-opacity:0; stroke-width: 0.02; stroke: #000000" d="M 906.499 -574.091 L 909.755,-574.091 L 906.308,-556.666 L 910.998,-556.666 L 913.838,-569.399 C 913.838,-569.399 915.305,-559.441 915.976,-556.762 C 916.723,-556.762 919.408,-556.762 920.954,-556.762 C 920.666,-557.911 918.082,-572.654 917.985,-574.187 C 918.369,-574.187 920.476,-573.994 921.146,-574.091 C 921.146,-574.856 920.572,-578.782 920.572,-579.739 C 920.572,-580.697 919.71,-585.005 919.423,-585.963 C 919.173,-586.792 917.509,-588.068 916.646,-588.355 C 915.783,-588.643 914.06,-588.547 913.104,-588.547 C 912.146,-588.547 911.083,-588.305 910.135,-588.069 C 909.37,-587.877 908.508,-586.635 908.221,-585.867 C 907.933,-585.102 907.551,-582.707 907.264,-581.559 C 906.975,-580.41 906.88,-576.101 906.688,-575.431 C 906.497,-574.762 906.497,-574.091 906.497,-574.091 L 906.499,-574.091"/>
    <path style="fill: #ffffff" d="M 915.659 -588.516 C 915.306,-588.547 914.734,-588.516 914.191,-588.547 C 913.649,-588.578 912.849,-588.547 912.468,-588.516 C 912.084,-588.485 911.159,-588.261 911.063,-588.261 C 910.969,-588.261 910.904,-588.324 910.904,-588.324 L 913.202,-580.155 L 916.52,-588.324 C 916.501,-588.558 916.246,-588.41 916.09,-588.499 L 915.659,-588.516z"/>
    <path style="fill: none; fill-opacity:0; stroke-width: 0.02; stroke: #ffffff" d="M 915.659 -588.516 C 915.306,-588.547 914.734,-588.516 914.191,-588.547 C 913.649,-588.578 912.849,-588.547 912.468,-588.516 C 912.084,-588.485 911.159,-588.261 911.063,-588.261 C 910.969,-588.261 910.904,-588.324 910.904,-588.324 L 913.202,-580.155 L 916.52,-588.324 C 916.501,-588.558 916.246,-588.41 916.09,-588.499 L 915.659,-588.516"/>
    <path style="fill: none; fill-opacity:0; stroke-width: 0.758; stroke: #ffffff" d="M 915.659 -588.516 C 915.306,-588.547 914.734,-588.516 914.191,-588.547 C 913.649,-588.578 912.849,-588.547 912.468,-588.516 C 912.084,-588.485 911.159,-588.261 911.063,-588.261 C 910.969,-588.261 910.904,-588.324 910.904,-588.324 L 913.202,-580.155 L 916.52,-588.324 C 916.501,-588.558 916.246,-588.41 916.09,-588.499"/>
    <path style="fill: #c9c9b8" d="M 913.696 -588.744 C 915.883,-588.744 917.655,-590.517 917.655,-592.704 C 917.655,-594.892 915.883,-596.666 913.696,-596.666 C 911.509,-596.666 909.735,-594.893 909.735,-592.704 C 909.735,-590.517 911.508,-588.744 913.696,-588.744z"/>
    <path style="fill: none; fill-opacity:0; stroke-width: 0.02; stroke: #000000" d="M 913.696 -588.744 C 915.883,-588.744 917.655,-590.517 917.655,-592.704 C 917.655,-594.892 915.883,-596.666 913.696,-596.666 C 911.509,-596.666 909.735,-594.893 909.735,-592.704 C 909.735,-590.517 911.508,-588.744 913.696,-588.744"/>
    <path style="fill: #ffffff" d="M 913.641 -589.573 C 915.283,-589.573 916.611,-590.902 916.611,-592.543 C 916.611,-594.183 915.283,-595.513 913.641,-595.513 C 912.002,-595.513 910.671,-594.183 910.671,-592.543 C 910.671,-590.902 912.002,-589.573 913.641,-589.573z"/>
    <path style="fill: none; fill-opacity:0; stroke-width: 0.02; stroke: #ffffff" d="M 913.641 -589.573 C 915.283,-589.573 916.611,-590.902 916.611,-592.543 C 916.611,-594.183 915.283,-595.513 913.641,-595.513 C 912.002,-595.513 910.671,-594.183 910.671,-592.543 C 910.671,-590.902 912.002,-589.573 913.641,-589.573"/>
  </g>
  <g>
    <path style="fill: #c9c9b8" d="M 943.481 -631.367 L 946.737,-631.367 L 943.29,-613.942 L 947.98,-613.942 L 950.82,-626.675 C 950.82,-626.675 952.287,-616.717 952.958,-614.038 C 953.705,-614.038 956.39,-614.038 957.936,-614.038 C 957.648,-615.187 955.064,-629.93 954.967,-631.463 C 955.351,-631.463 957.458,-631.27 958.128,-631.367 C 958.128,-632.132 957.554,-636.058 957.554,-637.015 C 957.554,-637.973 956.692,-642.281 956.405,-643.239 C 956.155,-644.068 954.491,-645.344 953.628,-645.631 C 952.765,-645.919 951.042,-645.823 950.086,-645.823 C 949.128,-645.823 948.065,-645.581 947.117,-645.345 C 946.352,-645.153 945.49,-643.911 945.203,-643.143 C 944.915,-642.378 944.533,-639.983 944.246,-638.835 C 943.957,-637.686 943.862,-633.377 943.67,-632.707 C 943.479,-632.038 943.479,-631.367 943.479,-631.367 L 943.481,-631.367z"/>
    <path style="fill: none; fill-opacity:0; stroke-width: 0.02; stroke: #000000" d="M 943.481 -631.367 L 946.737,-631.367 L 943.29,-613.942 L 947.98,-613.942 L 950.82,-626.675 C 950.82,-626.675 952.287,-616.717 952.958,-614.038 C 953.705,-614.038 956.39,-614.038 957.936,-614.038 C 957.648,-615.187 955.064,-629.93 954.967,-631.463 C 955.351,-631.463 957.458,-631.27 958.128,-631.367 C 958.128,-632.132 957.554,-636.058 957.554,-637.015 C 957.554,-637.973 956.692,-642.281 956.405,-643.239 C 956.155,-644.068 954.491,-645.344 953.628,-645.631 C 952.765,-645.919 951.042,-645.823 950.086,-645.823 C 949.128,-645.823 948.065,-645.581 947.117,-645.345 C 946.352,-645.153 945.49,-643.911 945.203,-643.143 C 944.915,-642.378 944.533,-639.983 944.246,-638.835 C 943.957,-637.686 943.862,-633.377 943.67,-632.707 C 943.479,-632.038 943.479,-631.367 943.479,-631.367 L 943.481,-631.367"/>
    <path style="fill: #ffffff" d="M 952.641 -645.792 C 952.288,-645.823 951.716,-645.792 951.173,-645.823 C 950.631,-645.854 949.831,-645.823 949.45,-645.792 C 949.066,-645.761 948.141,-645.537 948.045,-645.537 C 947.951,-645.537 947.886,-645.6 947.886,-645.6 L 950.184,-637.431 L 953.502,-645.6 C 953.483,-645.834 953.228,-645.686 953.072,-645.775 L 952.641,-645.792z"/>
    <path style="fill: none; fill-opacity:0; stroke-width: 0.02; stroke: #ffffff" d="M 952.641 -645.792 C 952.288,-645.823 951.716,-645.792 951.173,-645.823 C 950.631,-645.854 949.831,-645.823 949.45,-645.792 C 949.066,-645.761 948.141,-645.537 948.045,-645.537 C 947.951,-645.537 947.886,-645.6 947.886,-645.6 L 950.184,-637.431 L 953.502,-645.6 C 953.483,-645.834 953.228,-645.686 953.072,-645.775 L 952.641,-645.792"/>
    <path style="fill: none; fill-opacity:0; stroke-width: 0.758; stroke: #ffffff" d="M 952.641 -645.792 C 952.288,-645.823 951.716,-645.792 951.173,-645.823 C 950.631,-645.854 949.831,-645.823 949.45,-645.792 C 949.066,-645.761 948.141,-645.537 948.045,-645.537 C 947.951,-645.537 947.886,-645.6 947.886,-645.6 L 950.184,-637.431 L 953.502,-645.6 C 953.483,-645.834 953.228,-645.686 953.072,-645.775"/>
    <path style="fill: #c9c9b8" d="M 950.678 -646.02 C 952.865,-646.02 954.637,-647.793 954.637,-649.98 C 954.637,-652.168 952.865,-653.942 950.678,-653.942 C 948.491,-653.942 946.717,-652.169 946.717,-649.98 C 946.717,-647.793 948.49,-646.02 950.678,-646.02z"/>
    <path style="fill: none; fill-opacity:0; stroke-width: 0.02; stroke: #000000" d="M 950.678 -646.02 C 952.865,-646.02 954.637,-647.793 954.637,-649.98 C 954.637,-652.168 952.865,-653.942 950.678,-653.942 C 948.491,-653.942 946.717,-652.169 946.717,-649.98 C 946.717,-647.793 948.49,-646.02 950.678,-646.02"/>
    <path style="fill: #ffffff" d="M 950.623 -646.849 C 952.265,-646.849 953.593,-648.178 953.593,-649.819 C 953.593,-651.459 952.265,-652.789 950.623,-652.789 C 948.984,-652.789 947.653,-651.459 947.653,-649.819 C 947.653,-648.178 948.984,-646.849 950.623,-646.849z"/>
    <path style="fill: none; fill-opacity:0; stroke-width: 0.02; stroke: #ffffff" d="M 950.623 -646.849 C 952.265,-646.849 953.593,-648.178 953.593,-649.819 C 953.593,-651.459 952.265,-652.789 950.623,-652.789 C 948.984,-652.789 947.653,-651.459 947.653,-649.819 C 947.653,-648.178 948.984,-646.849 950.623,-646.849"/>
  </g>
  <g>
    <path style="fill: #c9c9b8" d="M 940.159 -576.919 L 943.415,-576.919 L 939.968,-559.494 L 944.658,-559.494 L 947.498,-572.227 C 947.498,-572.227 948.965,-562.269 949.636,-559.59 C 950.383,-559.59 953.068,-559.59 954.614,-559.59 C 954.326,-560.739 951.742,-575.482 951.645,-577.015 C 952.029,-577.015 954.136,-576.822 954.806,-576.919 C 954.806,-577.684 954.232,-581.61 954.232,-582.567 C 954.232,-583.525 953.37,-587.833 953.083,-588.791 C 952.833,-589.62 951.169,-590.896 950.306,-591.183 C 949.443,-591.471 947.72,-591.375 946.764,-591.375 C 945.806,-591.375 944.743,-591.133 943.795,-590.897 C 943.03,-590.705 942.168,-589.463 941.881,-588.695 C 941.593,-587.93 941.211,-585.535 940.924,-584.387 C 940.635,-583.238 940.54,-578.929 940.348,-578.259 C 940.157,-577.59 940.157,-576.919 940.157,-576.919 L 940.159,-576.919z"/>
    <path style="fill: none; fill-opacity:0; stroke-width: 0.02; stroke: #000000" d="M 940.159 -576.919 L 943.415,-576.919 L 939.968,-559.494 L 944.658,-559.494 L 947.498,-572.227 C 947.498,-572.227 948.965,-562.269 949.636,-559.59 C 950.383,-559.59 953.068,-559.59 954.614,-559.59 C 954.326,-560.739 951.742,-575.482 951.645,-577.015 C 952.029,-577.015 954.136,-576.822 954.806,-576.919 C 954.806,-577.684 954.232,-581.61 954.232,-582.567 C 954.232,-583.525 953.37,-587.833 953.083,-588.791 C 952.833,-589.62 951.169,-590.896 950.306,-591.183 C 949.443,-591.471 947.72,-591.375 946.764,-591.375 C 945.806,-591.375 944.743,-591.133 943.795,-590.897 C 943.03,-590.705 942.168,-589.463 941.881,-588.695 C 941.593,-587.93 941.211,-585.535 940.924,-584.387 C 940.635,-583.238 940.54,-578.929 940.348,-578.259 C 940.157,-577.59 940.157,-576.919 940.157,-576.919 L 940.159,-576.919"/>
    <path style="fill: #ffffff" d="M 949.319 -591.344 C 948.966,-591.375 948.394,-591.344 947.851,-591.375 C 947.309,-591.406 946.509,-591.375 946.128,-591.344 C 945.744,-591.313 944.819,-591.089 944.723,-591.089 C 944.629,-591.089 944.564,-591.152 944.564,-591.152 L 946.862,-582.983 L 950.18,-591.152 C 950.161,-591.386 949.906,-591.238 949.75,-591.327 L 949.319,-591.344z"/>
    <path style="fill: none; fill-opacity:0; stroke-width: 0.02; stroke: #ffffff" d="M 949.319 -591.344 C 948.966,-591.375 948.394,-591.344 947.851,-591.375 C 947.309,-591.406 946.509,-591.375 946.128,-591.344 C 945.744,-591.313 944.819,-591.089 944.723,-591.089 C 944.629,-591.089 944.564,-591.152 944.564,-591.152 L 946.862,-582.983 L 950.18,-591.152 C 950.161,-591.386 949.906,-591.238 949.75,-591.327 L 949.319,-591.344"/>
    <path style="fill: none; fill-opacity:0; stroke-width: 0.758; stroke: #ffffff" d="M 949.319 -591.344 C 948.966,-591.375 948.394,-591.344 947.851,-591.375 C 947.309,-591.406 946.509,-591.375 946.128,-591.344 C 945.744,-591.313 944.819,-591.089 944.723,-591.089 C 944.629,-591.089 944.564,-591.152 944.564,-591.152 L 946.862,-582.983 L 950.18,-591.152 C 950.161,-591.386 949.906,-591.238 949.75,-591.327"/>
    <path style="fill: #c9c9b8" d="M 947.356 -591.572 C 949.543,-591.572 951.315,-593.345 951.315,-595.532 C 951.315,-597.72 949.543,-599.494 947.356,-599.494 C 945.169,-599.494 943.395,-597.721 943.395,-595.532 C 943.395,-593.345 945.168,-591.572 947.356,-591.572z"/>
    <path style="fill: none; fill-opacity:0; stroke-width: 0.02; stroke: #000000" d="M 947.356 -591.572 C 949.543,-591.572 951.315,-593.345 951.315,-595.532 C 951.315,-597.72 949.543,-599.494 947.356,-599.494 C 945.169,-599.494 943.395,-597.721 943.395,-595.532 C 943.395,-593.345 945.168,-591.572 947.356,-591.572"/>
    <path style="fill: #ffffff" d="M 947.301 -592.401 C 948.943,-592.401 950.271,-593.73 950.271,-595.371 C 950.271,-597.011 948.943,-598.341 947.301,-598.341 C 945.662,-598.341 944.331,-597.011 944.331,-595.371 C 944.331,-593.73 945.662,-592.401 947.301,-592.401z"/>
    <path style="fill: none; fill-opacity:0; stroke-width: 0.02; stroke: #ffffff" d="M 947.301 -592.401 C 948.943,-592.401 950.271,-593.73 950.271,-595.371 C 950.271,-597.011 948.943,-598.341 947.301,-598.341 C 945.662,-598.341 944.331,-597.011 944.331,-595.371 C 944.331,-593.73 945.662,-592.401 947.301,-592.401"/>
  </g>
  <g>
    <path style="fill: none; fill-opacity:0; stroke-width: 2; stroke: #000000" d="M 723.417,-662.574 A 136.731,136.731 0 0 0 536.908,-684.346"/>
    <polygon style="fill: #000000" points="728.08,-656.722 718.166,-661.89 723.682,-662.797 726.266,-667.754 "/>
    <polygon style="fill: none; fill-opacity:0; stroke-width: 2; stroke: #000000" points="728.08,-656.722 718.166,-661.89 723.682,-662.797 726.266,-667.754 "/>
  </g>
  <g>
    <path style="fill: none; fill-opacity:0; stroke-width: 2; stroke: #000000" d="M 700.791,-640.007 A 365.839,365.839 0 0 0 545.221,-671.908"/>
    <polygon style="fill: #000000" points="537.726,-671.714 547.501,-677.141 545.219,-672.038 547.932,-667.15 "/>
    <polygon style="fill: none; fill-opacity:0; stroke-width: 2; stroke: #000000" points="537.726,-671.714 547.501,-677.141 545.219,-672.038 547.932,-667.15 "/>
  </g>
  <g>
    <path style="fill: none; fill-opacity:0; stroke-width: 2; stroke: #000000" d="M 541.856,-559.188 A 379.972,379.972 0 0 0 685.183,-582.419"/>
    <polygon style="fill: #000000" points="692.195,-585.074 684.751,-576.732 685.226,-582.302 681.055,-586.024 "/>
    <polygon style="fill: none; fill-opacity:0; stroke-width: 2; stroke: #000000" points="692.195,-585.074 684.751,-576.732 685.226,-582.302 681.055,-586.024 "/>
  </g>
  <g>
    <path style="fill: none; fill-opacity:0; stroke-width: 2; stroke: #000000" d="M 550.487,-533.133 A 180.024,180.024 0 0 0 717.308,-574.108"/>
    <polygon style="fill: #000000" points="543.279,-535.171 554.329,-536.876 550.42,-532.879 551.273,-527.354 "/>
    <polygon style="fill: none; fill-opacity:0; stroke-width: 2; stroke: #000000" points="543.279,-535.171 554.329,-536.876 550.42,-532.879 551.273,-527.354 "/>
  </g>
  <g>
    <path style="fill: none; fill-opacity:0; stroke-width: 2; stroke: #000000" d="M 930.434,-674.013 A 67.7269,67.7269 0 0 0 804.9,-657.476"/>
    <polygon style="fill: #000000" points="933.628,-667.301 925.492,-674.969 931.047,-674.343 934.881,-678.411 "/>
    <polygon style="fill: none; fill-opacity:0; stroke-width: 2; stroke: #000000" points="933.628,-667.301 925.492,-674.969 931.047,-674.343 934.881,-678.411 "/>
  </g>
  <g>
    <path style="fill: none; fill-opacity:0; stroke-width: 2; stroke: #000000" d="M 809.177,-559.151 A 69.082,69.082 0 0 0 933.594,-549.996"/>
    <polygon style="fill: #000000" points="806.825,-566.205 813.98,-557.614 808.541,-558.904 804.245,-555.327 "/>
    <polygon style="fill: none; fill-opacity:0; stroke-width: 2; stroke: #000000" points="806.825,-566.205 813.98,-557.614 808.541,-558.904 804.245,-555.327 "/>
  </g>
  <g>
    <line style="fill: none; fill-opacity:0; stroke-width: 2; stroke: #000000" x1="474.43" y1="-654.36" x2="474.43" y2="-639.475"/>
    <polygon style="fill: #000000" points="474.431,-631.975 469.43,-641.975 474.43,-639.475 479.43,-641.975 "/>
    <polygon style="fill: none; fill-opacity:0; stroke-width: 2; stroke: #000000" points="474.431,-631.975 469.43,-641.975 474.43,-639.475 479.43,-641.975 "/>
  </g>
  <g>
    <line style="fill: none; fill-opacity:0; stroke-width: 2; stroke: #000000" x1="474.237" y1="-589.81" x2="474.097" y2="-575.363"/>
    <polygon style="fill: #000000" points="474.025,-567.864 469.122,-577.912 474.097,-575.363 479.121,-577.815 "/>
    <polygon style="fill: none; fill-opacity:0; stroke-width: 2; stroke: #000000" points="474.025,-567.864 469.122,-577.912 474.097,-575.363 479.121,-577.815 "/>
  </g>
  <g>
    <line style="fill: none; fill-opacity:0; stroke-width: 2; stroke: #000000" x1="473.374" y1="-525.626" x2="473.158" y2="-515.698"/>
    <polygon style="fill: #000000" points="472.995,-508.2 468.214,-518.306 473.158,-515.698 478.211,-518.089 "/>
    <polygon style="fill: none; fill-opacity:0; stroke-width: 2; stroke: #000000" points="472.995,-508.2 468.214,-518.306 473.158,-515.698 478.211,-518.089 "/>
  </g>
  <g>
    <line style="fill: none; fill-opacity:0; stroke-width: 2; stroke: #000000" x1="472.751" y1="-465.991" x2="472.839" y2="-458.619"/>
    <polygon style="fill: #000000" points="472.929,-451.119 467.81,-461.059 472.839,-458.619 477.809,-461.178 "/>
    <polygon style="fill: none; fill-opacity:0; stroke-width: 2; stroke: #000000" points="472.929,-451.119 467.81,-461.059 472.839,-458.619 477.809,-461.178 "/>
  </g>
  <text font-size="12.8" style="fill: #000000;text-anchor:start;font-family:sans-serif;font-style:normal;font-weight:normal" x="590.648" y="-723.944">
    <tspan x="590.648" y="-723.944">Feed (Article)</tspan>
  </text>
  <text font-size="12.8" style="fill: #000000;text-anchor:start;font-family:sans-serif;font-style:normal;font-weight:normal" x="581.666" y="-674.568">
    <tspan x="581.666" y="-674.568">List of keywords</tspan>
  </text>
  <text font-size="12.8" style="fill: #000000;text-anchor:start;font-family:sans-serif;font-style:normal;font-weight:normal" x="545.482" y="-577.974">
    <tspan x="545.482" y="-577.974">Feed and keywords</tspan>
  </text>
  <text font-size="12.8" style="fill: #000000;text-anchor:start;font-family:sans-serif;font-style:normal;font-weight:normal" x="593.058" y="-508.908">
    <tspan x="593.058" y="-508.908">Rated keywords</tspan>
  </text>
  <text font-size="12.8" style="fill: #000000;text-anchor:start;font-family:sans-serif;font-style:normal;font-weight:normal" x="809.97" y="-721.4">
    <tspan x="809.97" y="-721.4">Task to workers (web GUI)</tspan>
  </text>
  <text font-size="12.8" style="fill: #000000;text-anchor:start;font-family:sans-serif;font-style:normal;font-weight:normal" x="809.97" y="-494.694">
    <tspan x="809.97" y="-494.694">Finished task (HTTP Post)</tspan>
  </text>
</svg>
